<svg xmlns="http://www.w3.org/2000/svg" width="325.01" height="30.281" viewBox="0 0 325.01 30.281">
  <g id="Grupo_4608" data-name="Grupo 4608" transform="translate(-92 -90.456)">
    <g id="Grupo_4603" data-name="Grupo 4603" transform="translate(92 90.456)">
      <path id="Trazado_499" data-name="Trazado 499" d="M92,101.954V96.942l11.511-4.1a1.924,1.924,0,0,1,2.569,1.813v2.284Z" transform="translate(-92 -91.93)" fill="#ff6315"/>
      <path id="Trazado_500" data-name="Trazado 500" d="M131.972,101.954V96.942l11.511-4.1a1.924,1.924,0,0,1,2.569,1.813v2.284Z" transform="translate(-117.891 -91.93)" fill="#ff6315"/>
      <path id="Trazado_501" data-name="Trazado 501" d="M171.944,100.48V95.468l14.081-5.012v5.012Z" transform="translate(-143.783 -90.456)" fill="#ff6315"/>
      <path id="Trazado_502" data-name="Trazado 502" d="M92,128.933v-5.012l14.081-5.012v5.012Z" transform="translate(-92 -108.887)" fill="#ff6315"/>
      <path id="Trazado_503" data-name="Trazado 503" d="M131.972,128.933v-5.012l14.081-5.012v5.012Z" transform="translate(-117.891 -108.887)" fill="#ff6315"/>
      <path id="Trazado_504" data-name="Trazado 504" d="M171.944,128.933v-5.012l14.081-5.012v5.012Z" transform="translate(-143.783 -108.887)" fill="#ff6315"/>
      <path id="Trazado_505" data-name="Trazado 505" d="M131.972,154.659v-2.284l14.081-5.011v5.011l-11.511,4.1A1.924,1.924,0,0,1,131.972,154.659Z" transform="translate(-117.891 -127.318)" fill="#ff6315"/>
    </g>
    <g id="Grupo_4607" data-name="Grupo 4607" transform="translate(151.54 92.395)">
      <g id="Grupo_4604" data-name="Grupo 4604" transform="translate(258.072 5.504)">
        <path id="Trazado_506" data-name="Trazado 506" d="M993.633,115.282a3.542,3.542,0,0,1,.293-1.437,3.76,3.76,0,0,1,1.968-1.969,3.664,3.664,0,0,1,2.873,0,3.759,3.759,0,0,1,1.969,1.969,3.664,3.664,0,0,1,0,2.873,3.76,3.76,0,0,1-1.969,1.969,3.668,3.668,0,0,1-2.873,0,3.76,3.76,0,0,1-1.968-1.969A3.541,3.541,0,0,1,993.633,115.282Zm1.014,0a2.849,2.849,0,0,0,.209,1.089,2.748,2.748,0,0,0,.577.89,2.829,2.829,0,0,0,.855.6,2.549,2.549,0,0,0,2.088,0,2.828,2.828,0,0,0,.855-.6,2.748,2.748,0,0,0,.577-.89,2.941,2.941,0,0,0,0-2.177,2.753,2.753,0,0,0-.577-.89,2.833,2.833,0,0,0-.855-.6,2.545,2.545,0,0,0-2.088,0,2.834,2.834,0,0,0-.855.6,2.754,2.754,0,0,0-.577.89A2.848,2.848,0,0,0,994.647,115.282Zm1.263-1.979h1.372c.106,0,.252.007.438.02a1.626,1.626,0,0,1,.547.139,1.224,1.224,0,0,1,.467.373,1.146,1.146,0,0,1,.2.721,1.311,1.311,0,0,1-.079.492.959.959,0,0,1-.2.318.831.831,0,0,1-.289.189,1.322,1.322,0,0,1-.333.085l.994,1.541h-1.044l-.885-1.491h-.169v1.491H995.91Zm1,1.611h.408c.06,0,.124,0,.194-.01a.616.616,0,0,0,.194-.05.356.356,0,0,0,.149-.124.489.489,0,0,0,0-.467.364.364,0,0,0-.149-.124.625.625,0,0,0-.194-.05c-.069-.006-.134-.01-.194-.01h-.408Z" transform="translate(-993.633 -111.583)" fill="#686868"/>
      </g>
      <g id="Grupo_4605" data-name="Grupo 4605">
        <path id="Trazado_507" data-name="Trazado 507" d="M282.326,98.283a8.958,8.958,0,0,1-.054,1.065,2.9,2.9,0,0,1-.161.711.944.944,0,0,1-.269.4.553.553,0,0,1-.355.129h-6.973v22.446a.6.6,0,0,1-.14.387.987.987,0,0,1-.463.28,4.516,4.516,0,0,1-.871.172,14.359,14.359,0,0,1-2.733,0,4.516,4.516,0,0,1-.871-.172.981.981,0,0,1-.463-.28.6.6,0,0,1-.14-.387V100.586H261.86a.545.545,0,0,1-.366-.129,1.009,1.009,0,0,1-.258-.4,2.9,2.9,0,0,1-.161-.711,8.88,8.88,0,0,1-.054-1.065,9.388,9.388,0,0,1,.054-1.1,2.933,2.933,0,0,1,.161-.721.92.92,0,0,1,.258-.387.577.577,0,0,1,.366-.118h19.627a.586.586,0,0,1,.355.118.866.866,0,0,1,.269.387,2.934,2.934,0,0,1,.161.721A9.47,9.47,0,0,1,282.326,98.283Z" transform="translate(-261.021 -95.959)" fill="#686868"/>
        <path id="Trazado_508" data-name="Trazado 508" d="M333.543,125.224a2.087,2.087,0,0,1-.441,1.464,1.581,1.581,0,0,1-1.216.474H320.2a7.975,7.975,0,0,0,.29,2.227,4.258,4.258,0,0,0,.925,1.7,4.026,4.026,0,0,0,1.636,1.065,7,7,0,0,0,2.4.366,13.508,13.508,0,0,0,2.5-.2,16.476,16.476,0,0,0,1.861-.452q.785-.247,1.3-.451a2.406,2.406,0,0,1,.839-.2.637.637,0,0,1,.323.075.566.566,0,0,1,.216.269,1.823,1.823,0,0,1,.118.549c.021.236.032.535.032.893,0,.316-.008.584-.021.807a5.236,5.236,0,0,1-.064.57,1.364,1.364,0,0,1-.13.4,1.482,1.482,0,0,1-.225.312,2.619,2.619,0,0,1-.764.41,12.037,12.037,0,0,1-1.592.505,21.737,21.737,0,0,1-2.217.43,18.427,18.427,0,0,1-2.668.183,14.128,14.128,0,0,1-4.487-.645A7.992,7.992,0,0,1,317.252,134a8.149,8.149,0,0,1-1.927-3.314,15.582,15.582,0,0,1-.635-4.692,14.894,14.894,0,0,1,.668-4.616,9.672,9.672,0,0,1,1.936-3.487,8.329,8.329,0,0,1,3.088-2.184,11.911,11.911,0,0,1,8.221-.043,7.427,7.427,0,0,1,2.809,1.969,7.943,7.943,0,0,1,1.614,2.981,12.988,12.988,0,0,1,.516,3.744Zm-5.251-1.55a5.571,5.571,0,0,0-.915-3.583,3.538,3.538,0,0,0-3.023-1.3,3.927,3.927,0,0,0-1.8.387,3.675,3.675,0,0,0-1.27,1.044,4.762,4.762,0,0,0-.775,1.549,7.683,7.683,0,0,0-.312,1.9Z" transform="translate(-295.785 -108.266)" fill="#686868"/>
        <path id="Trazado_509" data-name="Trazado 509" d="M391.933,117.972q0,.775-.043,1.27a3.9,3.9,0,0,1-.13.775.761.761,0,0,1-.225.388.57.57,0,0,1-.356.107,1.166,1.166,0,0,1-.387-.075q-.216-.076-.484-.161c-.18-.057-.377-.111-.592-.161a3.111,3.111,0,0,0-.71-.076,2.4,2.4,0,0,0-.9.183,3.828,3.828,0,0,0-.936.57,6.9,6.9,0,0,0-1.012,1.033,16.988,16.988,0,0,0-1.13,1.592v11.966a.586.586,0,0,1-.129.377.951.951,0,0,1-.442.269,3.876,3.876,0,0,1-.828.162q-.517.053-1.313.054T381,136.189a3.876,3.876,0,0,1-.829-.162.946.946,0,0,1-.441-.269.586.586,0,0,1-.129-.377v-19.2a.659.659,0,0,1,.108-.377.785.785,0,0,1,.387-.269,3.08,3.08,0,0,1,.721-.161,9.4,9.4,0,0,1,1.108-.054,9.935,9.935,0,0,1,1.141.054,2.588,2.588,0,0,1,.7.161.79.79,0,0,1,.355.269.664.664,0,0,1,.107.377v2.389a15.345,15.345,0,0,1,1.421-1.776,7.991,7.991,0,0,1,1.27-1.108,4,4,0,0,1,1.205-.57,4.632,4.632,0,0,1,1.205-.162q.28,0,.6.032a6.048,6.048,0,0,1,.667.108,4.456,4.456,0,0,1,.6.172,1.2,1.2,0,0,1,.377.2.68.68,0,0,1,.172.237,1.91,1.91,0,0,1,.1.355,5.358,5.358,0,0,1,.065.677Q391.933,117.2,391.933,117.972Z" transform="translate(-337.83 -108.266)" fill="#686868"/>
        <path id="Trazado_510" data-name="Trazado 510" d="M435.158,117.972q0,.775-.043,1.27a3.9,3.9,0,0,1-.13.775.761.761,0,0,1-.225.388.57.57,0,0,1-.356.107,1.167,1.167,0,0,1-.387-.075q-.216-.076-.484-.161c-.18-.057-.377-.111-.592-.161a3.112,3.112,0,0,0-.71-.076,2.4,2.4,0,0,0-.9.183,3.828,3.828,0,0,0-.936.57,6.9,6.9,0,0,0-1.012,1.033,17,17,0,0,0-1.13,1.592v11.966a.586.586,0,0,1-.129.377.95.95,0,0,1-.442.269,3.876,3.876,0,0,1-.829.162q-.517.053-1.313.054t-1.313-.054a3.877,3.877,0,0,1-.829-.162.946.946,0,0,1-.441-.269.586.586,0,0,1-.129-.377v-19.2a.659.659,0,0,1,.108-.377.785.785,0,0,1,.387-.269,3.081,3.081,0,0,1,.721-.161,9.4,9.4,0,0,1,1.108-.054,9.935,9.935,0,0,1,1.141.054,2.588,2.588,0,0,1,.7.161.79.79,0,0,1,.355.269.664.664,0,0,1,.107.377v2.389a15.338,15.338,0,0,1,1.421-1.776,7.989,7.989,0,0,1,1.27-1.108,4.006,4.006,0,0,1,1.205-.57,4.632,4.632,0,0,1,1.205-.162q.28,0,.6.032a6.045,6.045,0,0,1,.667.108,4.452,4.452,0,0,1,.6.172,1.2,1.2,0,0,1,.377.2.68.68,0,0,1,.172.237,1.915,1.915,0,0,1,.1.355,5.368,5.368,0,0,1,.065.677Q435.158,117.2,435.158,117.972Z" transform="translate(-365.829 -108.266)" fill="#686868"/>
        <path id="Trazado_511" data-name="Trazado 511" d="M477.479,135.447a.574.574,0,0,1-.215.474,1.482,1.482,0,0,1-.678.247,9.15,9.15,0,0,1-1.366.076,9.282,9.282,0,0,1-1.409-.076,1.216,1.216,0,0,1-.625-.247.621.621,0,0,1-.182-.474v-1.528a8.732,8.732,0,0,1-2.7,1.98,7.856,7.856,0,0,1-3.368.71,9.426,9.426,0,0,1-2.809-.4,6.3,6.3,0,0,1-2.216-1.184,5.322,5.322,0,0,1-1.453-1.947,6.63,6.63,0,0,1-.516-2.712,6.129,6.129,0,0,1,.657-2.916,5.333,5.333,0,0,1,1.958-2.044,9.744,9.744,0,0,1,3.239-1.195,23.145,23.145,0,0,1,4.5-.387h1.872v-1.163a6.111,6.111,0,0,0-.183-1.582,2.632,2.632,0,0,0-.6-1.129,2.484,2.484,0,0,0-1.119-.667,5.973,5.973,0,0,0-1.732-.216,8.888,8.888,0,0,0-2.421.3,13.943,13.943,0,0,0-1.884.667q-.817.366-1.366.667a2,2,0,0,1-.893.3.64.64,0,0,1-.42-.151,1.1,1.1,0,0,1-.3-.43,3,3,0,0,1-.183-.689,5.866,5.866,0,0,1-.064-.9,4.1,4.1,0,0,1,.108-1.055,1.616,1.616,0,0,1,.409-.7,4.021,4.021,0,0,1,1.055-.689,12.336,12.336,0,0,1,1.764-.7,16.261,16.261,0,0,1,2.206-.528,16.215,16.215,0,0,1,6.327.237,6.518,6.518,0,0,1,2.636,1.356,5.274,5.274,0,0,1,1.506,2.356,11,11,0,0,1,.473,3.422Zm-5.316-8.221H470.1a11.058,11.058,0,0,0-2.238.194,4.286,4.286,0,0,0-1.507.581,2.4,2.4,0,0,0-.85.936,2.818,2.818,0,0,0-.269,1.259,2.42,2.42,0,0,0,.764,1.894,3.048,3.048,0,0,0,2.12.689,3.971,3.971,0,0,0,2.1-.581,8.7,8.7,0,0,0,1.947-1.7Z" transform="translate(-389.868 -108.266)" fill="#686868"/>
        <path id="Trazado_512" data-name="Trazado 512" d="M542.148,135.382a.586.586,0,0,1-.129.377.943.943,0,0,1-.43.269,3.71,3.71,0,0,1-.828.162q-.528.053-1.3.054-.8,0-1.323-.054a3.693,3.693,0,0,1-.828-.162.938.938,0,0,1-.43-.269.585.585,0,0,1-.13-.377V124.428a9.223,9.223,0,0,0-.2-2.2,4.331,4.331,0,0,0-.591-1.366,2.641,2.641,0,0,0-1-.882,3.118,3.118,0,0,0-1.431-.312,3.59,3.59,0,0,0-2.088.753,11.3,11.3,0,0,0-2.195,2.2v12.762a.584.584,0,0,1-.129.377.947.947,0,0,1-.441.269,3.876,3.876,0,0,1-.829.162q-.516.053-1.312.054t-1.313-.054a3.876,3.876,0,0,1-.829-.162.945.945,0,0,1-.441-.269.585.585,0,0,1-.13-.377v-19.2a.66.66,0,0,1,.108-.377.787.787,0,0,1,.388-.269,3.077,3.077,0,0,1,.721-.161,9.41,9.41,0,0,1,1.108-.054,9.942,9.942,0,0,1,1.141.054,2.59,2.59,0,0,1,.7.161.794.794,0,0,1,.355.269.664.664,0,0,1,.107.377V118.4a12.2,12.2,0,0,1,3.239-2.583,7.321,7.321,0,0,1,3.432-.861,7.594,7.594,0,0,1,3.3.646,5.779,5.779,0,0,1,2.174,1.754,7.125,7.125,0,0,1,1.195,2.593,15.123,15.123,0,0,1,.366,3.572Z" transform="translate(-431.24 -108.266)" fill="#686868"/>
        <path id="Trazado_513" data-name="Trazado 513" d="M606.979,125.59a14.667,14.667,0,0,1-.646,4.477,9.45,9.45,0,0,1-1.958,3.486,8.707,8.707,0,0,1-3.292,2.26,12.36,12.36,0,0,1-4.627.8A12.677,12.677,0,0,1,592,135.9a8.021,8.021,0,0,1-3.143-2.066,8.495,8.495,0,0,1-1.85-3.336,15.53,15.53,0,0,1-.6-4.519,14.534,14.534,0,0,1,.656-4.487A9.46,9.46,0,0,1,589.03,118a8.79,8.79,0,0,1,3.282-2.248,12.275,12.275,0,0,1,4.616-.8,12.918,12.918,0,0,1,4.477.7,7.833,7.833,0,0,1,3.131,2.055,8.572,8.572,0,0,1,1.84,3.336A15.631,15.631,0,0,1,606.979,125.59Zm-5.574.216a14.1,14.1,0,0,0-.226-2.614,6.137,6.137,0,0,0-.764-2.077,3.822,3.822,0,0,0-1.431-1.377,4.6,4.6,0,0,0-2.249-.495,4.752,4.752,0,0,0-2.109.442,3.782,3.782,0,0,0-1.485,1.291,6.185,6.185,0,0,0-.872,2.045,11.551,11.551,0,0,0-.291,2.722,13.437,13.437,0,0,0,.237,2.615,6.45,6.45,0,0,0,.764,2.077,3.636,3.636,0,0,0,1.431,1.366,4.7,4.7,0,0,0,2.238.484,4.805,4.805,0,0,0,2.131-.441,3.807,3.807,0,0,0,1.485-1.28,5.9,5.9,0,0,0,.861-2.034A11.993,11.993,0,0,0,601.4,125.806Z" transform="translate(-471.784 -108.266)" fill="#686868"/>
        <path id="Trazado_514" data-name="Trazado 514" d="M668.9,116.837q0,.108-.011.258c-.008.1-.022.212-.043.334s-.05.262-.086.419-.082.337-.14.538l-5.767,17.367a1.707,1.707,0,0,1-.291.592,1.22,1.22,0,0,1-.6.355,5.066,5.066,0,0,1-1.141.172q-.721.043-1.883.044-1.14,0-1.861-.054a5.258,5.258,0,0,1-1.13-.183,1.208,1.208,0,0,1-.591-.355,1.681,1.681,0,0,1-.29-.571l-5.768-17.367c-.086-.287-.155-.545-.2-.775a3.88,3.88,0,0,1-.086-.495c-.008-.1-.011-.194-.011-.28a.619.619,0,0,1,.119-.377.865.865,0,0,1,.419-.269,3.384,3.384,0,0,1,.829-.151q.527-.042,1.323-.043.882,0,1.42.054a4.476,4.476,0,0,1,.85.15.811.811,0,0,1,.441.28,1.676,1.676,0,0,1,.216.441l4.369,14.1.129.538.13-.538,4.3-14.1a1.176,1.176,0,0,1,.2-.441.869.869,0,0,1,.441-.28,4.157,4.157,0,0,1,.807-.15,13.017,13.017,0,0,1,1.323-.054q.8,0,1.3.043a3,3,0,0,1,.785.151.789.789,0,0,1,.387.269A.662.662,0,0,1,668.9,116.837Z" transform="translate(-512.325 -108.939)" fill="#686868"/>
        <path id="Trazado_515" data-name="Trazado 515" d="M725.64,135.447a.574.574,0,0,1-.215.474,1.481,1.481,0,0,1-.678.247,9.154,9.154,0,0,1-1.366.076,9.291,9.291,0,0,1-1.41-.076,1.216,1.216,0,0,1-.624-.247.62.62,0,0,1-.183-.474v-1.528a8.732,8.732,0,0,1-2.7,1.98,7.856,7.856,0,0,1-3.368.71,9.425,9.425,0,0,1-2.809-.4,6.306,6.306,0,0,1-2.217-1.184,5.318,5.318,0,0,1-1.453-1.947,6.624,6.624,0,0,1-.516-2.712,6.13,6.13,0,0,1,.656-2.916,5.336,5.336,0,0,1,1.958-2.044,9.747,9.747,0,0,1,3.239-1.195,23.149,23.149,0,0,1,4.5-.387h1.872v-1.163a6.128,6.128,0,0,0-.182-1.582,2.633,2.633,0,0,0-.6-1.129,2.485,2.485,0,0,0-1.119-.667,5.968,5.968,0,0,0-1.732-.216,8.89,8.89,0,0,0-2.421.3,13.952,13.952,0,0,0-1.883.667q-.818.366-1.366.667a2,2,0,0,1-.893.3.64.64,0,0,1-.42-.151,1.105,1.105,0,0,1-.3-.43,3.015,3.015,0,0,1-.183-.689,5.868,5.868,0,0,1-.064-.9,4.079,4.079,0,0,1,.108-1.055,1.615,1.615,0,0,1,.409-.7,4.027,4.027,0,0,1,1.055-.689,12.355,12.355,0,0,1,1.765-.7,16.239,16.239,0,0,1,2.206-.528,16.215,16.215,0,0,1,6.327.237,6.516,6.516,0,0,1,2.636,1.356,5.275,5.275,0,0,1,1.506,2.356,11.01,11.01,0,0,1,.473,3.422Zm-5.316-8.221h-2.065a11.063,11.063,0,0,0-2.238.194,4.282,4.282,0,0,0-1.507.581,2.391,2.391,0,0,0-.85.936,2.813,2.813,0,0,0-.269,1.259,2.42,2.42,0,0,0,.764,1.894,3.049,3.049,0,0,0,2.12.689,3.974,3.974,0,0,0,2.1-.581,8.694,8.694,0,0,0,1.947-1.7Z" transform="translate(-550.611 -108.266)" fill="#686868"/>
      </g>
      <g id="Grupo_4606" data-name="Grupo 4606" transform="translate(179.242 1.035)">
        <path id="Trazado_516" data-name="Trazado 516" d="M785.237,121.651a7.246,7.246,0,0,1-.648,3.131,6.71,6.71,0,0,1-1.8,2.329,7.786,7.786,0,0,1-2.706,1.44,11.258,11.258,0,0,1-3.354.484,12.011,12.011,0,0,1-2.33-.213,12.7,12.7,0,0,1-1.914-.522,9.117,9.117,0,0,1-1.41-.637,3.721,3.721,0,0,1-.793-.561,1.406,1.406,0,0,1-.329-.589,3.47,3.47,0,0,1-.106-.956,5.189,5.189,0,0,1,.039-.705A1.685,1.685,0,0,1,770,124.4a.5.5,0,0,1,.193-.242.53.53,0,0,1,.271-.067,1.585,1.585,0,0,1,.764.328,11.882,11.882,0,0,0,1.266.716,12.334,12.334,0,0,0,1.866.725,8.538,8.538,0,0,0,2.523.339,6.421,6.421,0,0,0,1.981-.291,4.661,4.661,0,0,0,1.547-.821,3.549,3.549,0,0,0,1-1.3,4.235,4.235,0,0,0,.348-1.76,3.29,3.29,0,0,0-.484-1.816A4.851,4.851,0,0,0,780,118.877a11.227,11.227,0,0,0-1.807-1.044q-1.014-.474-2.078-.967a22.589,22.589,0,0,1-2.068-1.092,8.719,8.719,0,0,1-1.8-1.411,6.568,6.568,0,0,1-1.286-1.9,6.34,6.34,0,0,1-.492-2.619,6.559,6.559,0,0,1,.57-2.793,5.772,5.772,0,0,1,1.585-2.059,7.093,7.093,0,0,1,2.417-1.266,10.158,10.158,0,0,1,3.025-.435,9.885,9.885,0,0,1,1.673.145,11.388,11.388,0,0,1,1.584.386,8.888,8.888,0,0,1,1.324.542,3.439,3.439,0,0,1,.764.483,1.488,1.488,0,0,1,.241.29,1.129,1.129,0,0,1,.1.271,2.7,2.7,0,0,1,.057.4c.013.155.019.354.019.6a5.837,5.837,0,0,1-.029.619,2.276,2.276,0,0,1-.087.454.558.558,0,0,1-.164.271.367.367,0,0,1-.241.087,1.551,1.551,0,0,1-.668-.271q-.454-.271-1.111-.609a9.843,9.843,0,0,0-1.556-.619,6.79,6.79,0,0,0-2.02-.28,5.342,5.342,0,0,0-1.817.28,3.742,3.742,0,0,0-1.276.744,2.964,2.964,0,0,0-.754,1.1,3.671,3.671,0,0,0-.251,1.353,3.257,3.257,0,0,0,.484,1.8,4.914,4.914,0,0,0,1.285,1.334,11.361,11.361,0,0,0,1.827,1.063q1.025.484,2.088.976t2.087,1.083a8.732,8.732,0,0,1,1.827,1.392,6.345,6.345,0,0,1,1.295,1.894A6.231,6.231,0,0,1,785.237,121.651Z" transform="translate(-769.85 -101.74)" fill="#686868"/>
        <path id="Trazado_517" data-name="Trazado 517" d="M835.8,140.394a.409.409,0,0,1-.155.348,1.1,1.1,0,0,1-.426.174,4.114,4.114,0,0,1-.792.057,4.468,4.468,0,0,1-.8-.057.957.957,0,0,1-.435-.174.434.434,0,0,1-.135-.348v-1.739a8.6,8.6,0,0,1-2.542,1.894,6.741,6.741,0,0,1-2.967.677,8.084,8.084,0,0,1-2.484-.358,5.388,5.388,0,0,1-1.894-1.034,4.64,4.64,0,0,1-1.218-1.662,5.5,5.5,0,0,1-.435-2.243,5.189,5.189,0,0,1,.6-2.552,4.991,4.991,0,0,1,1.721-1.8,8.455,8.455,0,0,1,2.744-1.073,17.09,17.09,0,0,1,3.654-.357h2.4V128.8a6.733,6.733,0,0,0-.213-1.778,3.049,3.049,0,0,0-.686-1.286,2.952,2.952,0,0,0-1.228-.773,5.744,5.744,0,0,0-1.856-.261,7.389,7.389,0,0,0-2.116.28,11.354,11.354,0,0,0-1.643.619q-.706.338-1.18.619a1.618,1.618,0,0,1-.705.28.476.476,0,0,1-.271-.077.658.658,0,0,1-.2-.232,1.2,1.2,0,0,1-.125-.4,4.027,4.027,0,0,1,.029-1.295,1.106,1.106,0,0,1,.329-.532,4.23,4.23,0,0,1,.9-.589,9.938,9.938,0,0,1,1.469-.619,13.474,13.474,0,0,1,1.817-.464,10.886,10.886,0,0,1,1.99-.184,10.435,10.435,0,0,1,3.19.426,5.173,5.173,0,0,1,2.127,1.246,4.833,4.833,0,0,1,1.179,2.04,9.873,9.873,0,0,1,.368,2.842Zm-3.17-7.945H829.9a10.271,10.271,0,0,0-2.281.223,4.707,4.707,0,0,0-1.6.657,2.721,2.721,0,0,0-.938,1.044,3.139,3.139,0,0,0-.3,1.4,2.809,2.809,0,0,0,.86,2.156,3.394,3.394,0,0,0,2.407.8,4.471,4.471,0,0,0,2.33-.638,10.059,10.059,0,0,0,2.252-1.952Z" transform="translate(-803.315 -113.931)" fill="#686868"/>
        <path id="Trazado_518" data-name="Trazado 518" d="M880.762,125.34a.43.43,0,0,1-.078.261.6.6,0,0,1-.251.184,1.768,1.768,0,0,1-.483.116,6.39,6.39,0,0,1-.792.039,6.2,6.2,0,0,1-.774-.039,1.914,1.914,0,0,1-.493-.116.525.525,0,0,1-.251-.184.464.464,0,0,1-.068-.261V99.515a.518.518,0,0,1,.068-.271.5.5,0,0,1,.251-.193,1.912,1.912,0,0,1,.493-.116,6.427,6.427,0,0,1,.774-.039,6.617,6.617,0,0,1,.792.039,1.766,1.766,0,0,1,.483.116.571.571,0,0,1,.251.193.479.479,0,0,1,.078.271Z" transform="translate(-839.625 -98.896)" fill="#686868"/>
        <path id="Trazado_519" data-name="Trazado 519" d="M914.952,130.922a1.333,1.333,0,0,1-.379,1.073,1.3,1.3,0,0,1-.864.319H902.252a10.754,10.754,0,0,0,.291,2.61,5.023,5.023,0,0,0,.971,1.991,4.374,4.374,0,0,0,1.768,1.276,7.057,7.057,0,0,0,2.661.445,10.877,10.877,0,0,0,2.214-.2,13,13,0,0,0,1.68-.454q.709-.25,1.166-.454a1.914,1.914,0,0,1,.69-.2.445.445,0,0,1,.242.067.435.435,0,0,1,.165.2,1.411,1.411,0,0,1,.087.377,5.213,5.213,0,0,1,.029.589c0,.168-.007.313-.019.435s-.029.232-.049.329a.844.844,0,0,1-.1.262,1.1,1.1,0,0,1-.174.222,2.823,2.823,0,0,1-.628.348,9.132,9.132,0,0,1-1.353.474,19,19,0,0,1-1.923.415,14.1,14.1,0,0,1-2.329.184,10.8,10.8,0,0,1-3.76-.6,6.967,6.967,0,0,1-2.716-1.779,7.6,7.6,0,0,1-1.663-2.957,13.783,13.783,0,0,1-.56-4.137,13.05,13.05,0,0,1,.58-4.03,8.548,8.548,0,0,1,1.672-3.035,7.306,7.306,0,0,1,2.638-1.913,8.657,8.657,0,0,1,3.46-.668,8.383,8.383,0,0,1,3.49.658,6.6,6.6,0,0,1,2.368,1.769,7.116,7.116,0,0,1,1.363,2.61,11.429,11.429,0,0,1,.435,3.2Zm-3.209-.947a5.814,5.814,0,0,0-1.118-3.944,4.258,4.258,0,0,0-3.491-1.43,4.617,4.617,0,0,0-2.081.445,4.493,4.493,0,0,0-1.5,1.179,5.382,5.382,0,0,0-.933,1.71,7.117,7.117,0,0,0-.37,2.04Z" transform="translate(-853.47 -113.931)" fill="#686868"/>
        <path id="Trazado_520" data-name="Trazado 520" d="M965.4,135.639a5.5,5.5,0,0,1-.493,2.378,4.834,4.834,0,0,1-1.4,1.759,6.331,6.331,0,0,1-2.165,1.083,9.827,9.827,0,0,1-2.764.368,10.593,10.593,0,0,1-3.276-.513,7.673,7.673,0,0,1-1.131-.464,3.294,3.294,0,0,1-.676-.435,1.11,1.11,0,0,1-.309-.541,3.667,3.667,0,0,1-.1-.947,4.184,4.184,0,0,1,.038-.619,2.084,2.084,0,0,1,.1-.405.427.427,0,0,1,.164-.223.436.436,0,0,1,.241-.067,1.38,1.38,0,0,1,.628.261q.415.261,1.024.57a9.3,9.3,0,0,0,1.44.57,6.393,6.393,0,0,0,1.914.261,5.754,5.754,0,0,0,1.47-.174,3.567,3.567,0,0,0,1.14-.513,2.28,2.28,0,0,0,.744-.86,2.736,2.736,0,0,0,.261-1.237,2,2,0,0,0-.377-1.236,3.641,3.641,0,0,0-1-.89,8.254,8.254,0,0,0-1.391-.686q-.774-.3-1.6-.628a16.209,16.209,0,0,1-1.6-.744,6.146,6.146,0,0,1-1.4-1.015,4.63,4.63,0,0,1-1-1.43,4.8,4.8,0,0,1-.377-1.991,4.988,4.988,0,0,1,.4-1.962,4.552,4.552,0,0,1,1.189-1.643,5.959,5.959,0,0,1,1.981-1.13,8.219,8.219,0,0,1,2.773-.426,8.436,8.436,0,0,1,1.392.117,9.636,9.636,0,0,1,1.257.29,6.066,6.066,0,0,1,.956.377,4.14,4.14,0,0,1,.6.358,1.069,1.069,0,0,1,.271.271.85.85,0,0,1,.1.261c.019.1.038.217.057.358a3.933,3.933,0,0,1,.029.521,4.86,4.86,0,0,1-.029.571,1.448,1.448,0,0,1-.1.4.508.508,0,0,1-.164.222.359.359,0,0,1-.213.068,1.065,1.065,0,0,1-.5-.213,7.267,7.267,0,0,0-.851-.454,9.506,9.506,0,0,0-1.227-.454,5.607,5.607,0,0,0-1.614-.212,5.026,5.026,0,0,0-1.431.184,2.733,2.733,0,0,0-1.014.521,2.207,2.207,0,0,0-.6.8,2.482,2.482,0,0,0-.2,1.005,2.04,2.04,0,0,0,.387,1.266,3.68,3.68,0,0,0,1.005.9,8.476,8.476,0,0,0,1.411.7q.793.309,1.615.638t1.624.734a6.069,6.069,0,0,1,1.42.986,4.462,4.462,0,0,1,1,1.392A4.555,4.555,0,0,1,965.4,135.639Z" transform="translate(-888.536 -113.931)" fill="#686868"/>
      </g>
    </g>
  </g>
</svg>
