<svg xmlns="http://www.w3.org/2000/svg" width="61.484" height="42.6" viewBox="0 0 61.484 42.6">
  <g id="terranova_ic" transform="translate(-92 -90.456)">
    <path id="Trazado_530" data-name="Trazado 530" d="M92,106.212V98.918l16.755-5.963a2.8,2.8,0,0,1,3.74,2.639v3.325Z" transform="translate(0 -1.167)" fill="#ff6315"/>
    <path id="Trazado_531" data-name="Trazado 531" d="M132.994,106.212V98.918l16.755-5.963a2.8,2.8,0,0,1,3.74,2.639v3.325Z" transform="translate(-20.499 -1.167)" fill="#ff6315"/>
    <path id="Trazado_532" data-name="Trazado 532" d="M173.988,105.045V97.751l20.495-7.294v7.294Z" transform="translate(-40.999 0)" fill="#ff6315"/>
    <path id="Trazado_533" data-name="Trazado 533" d="M92,134.226v-7.294l20.495-7.294v7.294Z" transform="translate(0 -14.592)" fill="#ff6315"/>
    <path id="Trazado_534" data-name="Trazado 534" d="M132.994,134.226v-7.294l20.495-7.294v7.294Z" transform="translate(-20.499 -14.592)" fill="#ff6315"/>
    <path id="Trazado_535" data-name="Trazado 535" d="M173.988,134.226v-7.294l20.495-7.294v7.294Z" transform="translate(-40.999 -14.592)" fill="#ff6315"/>
    <path id="Trazado_536" data-name="Trazado 536" d="M132.994,159.437v-3.325l20.495-7.295v7.295l-16.755,5.963A2.8,2.8,0,0,1,132.994,159.437Z" transform="translate(-20.499 -29.184)" fill="#ff6315"/>
  </g>
</svg>
